<?xml version="1.0" standalone="no"?>
<!DOCTYPE svg PUBLIC "-//W3C//DTD SVG 1.1//EN" "http://www.w3.org/Graphics/SVG/1.1/DTD/svg11.dtd" >
<svg xmlns="http://www.w3.org/2000/svg">
<metadata>Generated by IcoMoon</metadata>
<defs>
<font id="pacscoder" horiz-adv-x="1024">
<font-face units-per-em="1024" ascent="960" descent="-64" />
<missing-glyph horiz-adv-x="1024" />
<glyph unicode="&#x20;" horiz-adv-x="512" d="" />
<glyph unicode="&#xe900;" glyph-name="arrow-left" d="M853.333 490.667v-85.333h-511.999l234.665-234.667-60.587-60.587-337.919 337.92 337.919 337.919 60.587-60.587-234.665-234.666h511.999z" />
<glyph unicode="&#xe901;" glyph-name="backspace" d="M938.667 832h-640c-29.44 0-52.48-14.933-67.84-37.547l-230.827-346.453 230.827-346.027c15.36-22.613 38.4-37.973 67.84-37.973h640c22.63 0 44.335 8.99 60.339 24.994s24.994 37.709 24.994 60.339v597.333c0 22.632-8.99 44.337-24.994 60.34s-37.709 24.994-60.339 24.994zM810.667 294.827l-60.16-60.16-153.173 153.173-153.173-153.173-60.16 60.16 153.173 153.173-153.173 153.173 60.16 60.16 153.173-153.173 153.173 153.173 60.16-60.16-153.173-153.173z" />
<glyph unicode="&#xe902;" glyph-name="calendar-today" d="M298.667 533.333h213.333v-213.333h-213.333zM810.667 149.333h-597.333v469.333h597.333zM810.667 832h-42.667v85.333h-85.333v-85.333h-341.333v85.333h-85.333v-85.333h-42.667c-47.36 0-85.333-38.4-85.333-85.333v-597.333c0-22.63 8.99-44.335 24.994-60.339s37.708-24.994 60.34-24.994h597.333c22.63 0 44.335 8.99 60.339 24.994s24.994 37.709 24.994 60.339v597.333c0 22.632-8.99 44.337-24.994 60.34s-37.709 24.994-60.339 24.994z" />
<glyph unicode="&#xe903;" glyph-name="check-network" d="M640 106.667c0 11.315-4.497 22.17-12.497 30.17s-18.854 12.497-30.17 12.497h-42.667v85.333h170.667c22.63 0 44.335 8.99 60.339 24.994s24.994 37.709 24.994 60.339v426.667c0 22.632-8.99 44.337-24.994 60.34s-37.709 24.994-60.339 24.994h-426.667c-22.632 0-44.337-8.99-60.34-24.994s-24.994-37.708-24.994-60.34v-426.667c0-22.63 8.99-44.335 24.994-60.339s37.708-24.994 60.34-24.994h170.667v-85.333h-42.667c-11.316 0-22.168-4.497-30.17-12.497s-12.497-18.854-12.497-30.17h-298.667v-85.333h298.667c0-11.315 4.495-22.17 12.497-30.17s18.854-12.497 30.17-12.497h170.667c11.315 0 22.17 4.497 30.17 12.497s12.497 18.854 12.497 30.17h298.667v85.333h-298.667zM352 529.92l49.493 49.493 67.84-67.413 153.173 152.747 49.493-60.16-202.667-202.667-117.333 128z" />
<glyph unicode="&#xe904;" glyph-name="chevron-left" d="M657.493 252.587l-195.413 195.413 195.413 195.84-60.16 60.16-256-256 256-256 60.16 60.587z" />
<glyph unicode="&#xe905;" glyph-name="chevron-right" d="M366.505 252.587l195.415 195.413-195.415 195.84 60.16 60.16 256.001-256-256.001-256-60.16 60.587z" />
<glyph unicode="&#xe906;" glyph-name="clock-time-eight" d="M512 874.667c-234.667 0-426.667-192-426.667-426.667s192-426.667 426.667-426.667c234.667 0 426.667 192 426.667 426.667s-192 426.667-426.667 426.667zM328.533 298.667l-29.867 55.467 170.667 98.133v209.067h64v-247.467l-204.8-115.2z" />
<glyph unicode="&#xe907;" glyph-name="cogs" d="M678.4 172.8c57.6 0 104.533 46.933 104.533 104.533s-46.933 104.533-104.533 104.533c-58.027 0-104.533-46.933-104.533-104.533s46.507-104.533 104.533-104.533zM900.267 248.32l63.147-49.493c5.547-4.693 7.253-12.373 3.413-19.2l-59.733-103.253c-3.84-6.4-11.093-8.96-18.347-6.4l-74.24 29.867c-15.36-11.947-32.427-21.76-50.347-29.44l-11.52-78.933c-0.853-7.253-7.253-12.8-14.507-12.8h-119.467c-7.68 0-13.653 5.547-14.933 12.8l-11.093 78.933c-18.347 7.68-34.987 17.493-50.347 29.44l-74.667-29.867c-6.4-2.56-14.507 0-17.92 6.4l-59.732 103.253c-3.84 6.827-2.133 14.507 3.413 19.2l63.145 49.493-2.133 29.013 2.133 29.44-63.145 49.067c-5.547 4.693-7.253 12.8-3.413 19.2l59.732 103.253c3.413 6.827 11.52 9.387 17.92 6.827l74.667-30.293c15.36 11.947 32 22.187 50.347 29.44l11.093 79.36c1.28 6.827 7.253 12.373 14.933 12.373h119.467c7.253 0 13.653-5.547 14.507-12.373l11.52-79.36c17.92-7.253 34.987-17.493 50.347-29.44l74.24 30.293c7.253 2.56 14.507 0 18.347-6.827l59.733-103.253c3.84-6.4 2.133-14.507-3.413-19.2l-63.147-49.067 2.133-29.44-2.133-29.013zM285.441 615.68c37.12 0 66.987 29.867 66.987 66.987s-29.867 67.413-66.987 67.413c-17.879 0-35.026-7.102-47.668-19.745s-19.745-29.789-19.745-47.668c0-37.12 30.293-66.987 67.413-66.987zM427.947 663.893l41.387-31.573c2.987-2.987 3.84-8.107 1.28-12.373l-38.4-66.56c-2.133-4.267-7.252-5.973-11.519-4.267l-47.786 19.2-31.573-18.773-8.107-50.773c-0.853-4.693-4.693-8.107-9.387-8.107h-76.8c-5.12 0-8.96 3.413-9.813 8.107l-6.827 50.773-32.427 18.773-48.64-19.2c-3.84-1.707-8.533 0-11.093 4.267l-38.4 66.56c-2.56 4.267-1.28 9.387 2.133 12.373l40.533 31.573-1.28 18.773 1.28 18.773-40.533 31.573c-3.413 2.987-4.693 8.107-2.133 12.373l38.4 66.56c2.56 4.267 7.253 5.973 11.093 4.267l48.213-19.2 32.853 18.773 6.827 50.773c0.853 4.693 4.693 8.107 9.813 8.107h76.8c4.693 0 8.533-3.413 9.387-8.107l8.107-50.773 31.573-18.773 47.786 19.2c4.267 1.707 9.386 0 11.519-4.267l38.4-66.56c2.56-4.267 1.707-9.387-1.28-12.373l-41.387-31.573 1.28-18.773-1.28-18.773z" />
<glyph unicode="&#xe908;" glyph-name="database-search" d="M797.013 434.347c-75.093 75.093-196.693 74.667-271.36-0.427-75.093-75.093-75.093-196.693 0-271.36 63.573-63.147 161.707-74.24 237.653-26.88l132.693-130.987 59.307 59.307-131.84 132.693c48.213 75.52 37.12 174.507-26.453 237.653zM736.853 223.147c-41.813-41.813-109.227-41.387-151.040 0-41.387 41.813-41.387 109.227 0.427 151.040 41.387 41.387 108.8 41.387 150.613 0 41.387-41.813 41.387-109.227 0-151.040zM465.067 102.4c-27.733 28.16-49.493 61.867-63.147 98.987-134.4 22.613-231.253 86.187-231.253 161.28v-128c0-94.293 152.747-170.667 341.333-170.667-17.067 11.093-32.853 23.893-46.933 38.4zM170.667 576v-128c0-71.68 88.32-133.12 213.333-157.867 0 2.987 0 5.547 0 8.533 0 39.68 8.533 78.933 24.747 114.773-138.24 21.76-238.080 86.187-238.080 162.56zM512 832c-188.587 0-341.333-76.373-341.333-170.667 0-85.333 128-157.013 292.267-170.667h2.133c51.2 53.76 122.027 85.333 196.267 85.333 38.827 0 77.227-8.107 112.64-23.893 43.947 20.053 73.813 61.44 79.36 109.227 0 94.293-152.747 170.667-341.333 170.667z" />
<glyph unicode="&#xe909;" glyph-name="face-recognition" d="M384 458.667c-14.145 0-27.71-5.619-37.712-15.62s-15.621-23.569-15.621-37.713c0-14.144 5.619-27.712 15.621-37.713s23.567-15.62 37.712-15.62c7.004 0 13.939 1.378 20.41 4.062 6.471 2.679 12.35 6.605 17.303 11.558s8.88 10.833 11.559 17.301c2.684 6.473 4.062 13.406 4.062 20.412s-1.378 13.939-4.062 20.412c-2.679 6.468-6.607 12.348-11.559 17.301s-10.832 8.879-17.303 11.558c-6.47 2.684-13.406 4.062-20.41 4.062zM640 458.667c-14.144 0-27.712-5.619-37.713-15.62s-15.62-23.569-15.62-37.713c0-14.144 5.619-27.712 15.62-37.713s23.569-15.62 37.713-15.62c14.144 0 27.712 5.619 37.713 15.62s15.62 23.569 15.62 37.713c0 14.144-5.619 27.712-15.62 37.713s-23.569 15.62-37.713 15.62zM512 874.667c-56.030 0-111.513-11.036-163.278-32.478s-98.801-52.87-138.421-92.49c-80.015-80.016-124.968-188.54-124.968-301.699 0-113.161 44.952-221.683 124.968-301.7 39.62-39.62 86.655-71.044 138.421-92.489 51.765-21.44 107.248-32.478 163.278-32.478 113.161 0 221.683 44.954 301.7 124.966 80.013 80.017 124.966 188.54 124.966 301.7 0 56.030-11.038 111.513-32.478 163.278-21.444 51.766-52.868 98.801-92.489 138.421s-86.656 71.048-138.423 92.49c-51.763 21.442-107.247 32.478-163.277 32.478zM512 106.667c-90.527 0-177.347 35.964-241.359 99.972-64.013 64.013-99.974 150.835-99.974 241.361-1.28 12.373-1.28 24.32 0 36.693 101.547 44.373 182.187 126.72 224.427 229.12 79.787-113.067 209.493-180.48 348.16-180.48 32.427 0 64.427 3.84 96 11.093 53.333-181.76-49.92-370.773-230.827-423.68-32.427-9.387-64-14.080-96.427-14.080zM0 874.667c0 22.632 8.99 44.337 24.994 60.34s37.708 24.994 60.34 24.994h170.667v-85.333h-170.667v-170.667h-85.333v170.667zM1024 21.333c0-22.63-8.99-44.335-24.994-60.339s-37.709-24.994-60.339-24.994h-170.667v85.333h170.667v170.667h85.333v-170.667zM85.333-64c-22.632 0-44.337 8.99-60.34 24.994s-24.994 37.709-24.994 60.339v170.667h85.333v-170.667h170.667v-85.333h-170.667zM938.667 960c22.63 0 44.335-8.99 60.339-24.994s24.994-37.708 24.994-60.34v-170.667h-85.333v170.667h-170.667v85.333h170.667z" />
<glyph unicode="&#xe90a;" glyph-name="fan" d="M512 490.667c-11.315 0-22.17-4.497-30.17-12.497s-12.497-18.854-12.497-30.17c0-11.315 4.497-22.17 12.497-30.17s18.854-12.497 30.17-12.497c11.315 0 22.17 4.497 30.17 12.497s12.497 18.854 12.497 30.17c0 11.315-4.497 22.17-12.497 30.17s-18.854 12.497-30.17 12.497zM533.333 874.667c192 0 196.693-152.32 96-202.667-42.24-20.907-61.013-65.707-69.12-105.387 20.48-8.533 38.4-21.76 52.053-38.827 157.867 85.333 327.68 51.627 327.68-101.12 0-192-152.32-196.267-202.667-95.147-21.333 42.24-66.56 61.013-106.24 69.12-8.533-20.48-21.76-37.973-38.827-52.48 84.907-157.44 51.2-326.827-101.547-326.827-192 0-195.84 152.747-95.147 203.093 41.813 20.907 60.587 65.28 69.12 104.533-20.907 8.533-39.253 22.187-52.907 39.253-157.44-84.48-326.4-51.2-326.4 101.12 0 192 151.893 196.693 202.24 95.573 21.333-42.24 66.133-60.587 105.813-68.693 8.107 20.48 21.76 38.4 39.253 52.053-84.907 157.44-51.2 326.4 100.693 326.4z" />
<glyph unicode="&#xe90b;" glyph-name="harddisk" d="M256 874.667h512c22.63 0 44.335-8.99 60.339-24.994s24.994-37.708 24.994-60.34v-682.667c0-22.63-8.99-44.335-24.994-60.339s-37.709-24.994-60.339-24.994h-512c-22.632 0-44.337 8.99-60.34 24.994s-24.994 37.709-24.994 60.339v682.667c0 22.632 8.99 44.337 24.994 60.34s37.708 24.994 60.34 24.994zM512 789.333c-67.895 0-133.010-26.971-181.019-74.981s-74.981-113.124-74.981-181.019c0-141.227 114.773-256 260.267-256l-37.547 95.147c-11.52 20.48-4.693 46.507 15.787 58.453l36.693 21.333c20.48 11.52 46.507 4.693 58.453-15.787l81.92-103.253c58.88 46.933 96.427 119.040 96.427 200.107 0 67.895-26.97 133.010-74.982 181.019-48.009 48.009-113.122 74.981-181.018 74.981zM512 576c11.315 0 22.17-4.495 30.17-12.497s12.497-18.854 12.497-30.17c0-11.315-4.497-22.17-12.497-30.17s-18.854-12.497-30.17-12.497c-11.315 0-22.17 4.497-30.17 12.497s-12.497 18.854-12.497 30.17c0 11.316 4.497 22.168 12.497 30.17s18.854 12.497 30.17 12.497zM298.667 192c-11.316 0-22.168-4.497-30.17-12.497s-12.497-18.854-12.497-30.17c0-11.315 4.495-22.17 12.497-30.17s18.854-12.497 30.17-12.497c11.316 0 22.168 4.497 30.17 12.497s12.497 18.854 12.497 30.17c0 11.315-4.495 22.17-12.497 30.17s-18.854 12.497-30.17 12.497zM515.84 393.813l106.24-269.227 110.507 64-180.053 226.56-36.693-21.333z" />
<glyph unicode="&#xe90c;" glyph-name="image" d="M362.667 384l106.667-128 149.333 192 192-256h-597.333zM896 149.333v597.333c0 47.36-38.4 85.333-85.333 85.333h-597.333c-22.632 0-44.337-8.99-60.34-24.994s-24.994-37.708-24.994-60.34v-597.333c0-22.63 8.99-44.335 24.994-60.339s37.708-24.994 60.34-24.994h597.333c22.63 0 44.335 8.99 60.339 24.994s24.994 37.709 24.994 60.339z" />
<glyph unicode="&#xe90d;" glyph-name="keyboard-backspace" d="M896 490.667h-604.587l152.747 153.173-60.16 60.16-256-256 256-256 60.16 60.587-152.747 152.747h604.587v85.333z" />
<glyph unicode="&#xe90e;" glyph-name="magnify" d="M405.333 832c73.553 0 144.094-29.219 196.105-81.229s81.229-122.551 81.229-196.104c0-68.693-25.173-131.84-66.56-180.48l11.52-11.52h33.707l213.333-213.333-64-64-213.333 213.333v33.707l-11.52 11.52c-48.64-41.387-111.787-66.56-180.48-66.56-73.553 0-144.094 29.218-196.104 81.229s-81.229 122.551-81.229 196.105c0 73.553 29.219 144.094 81.229 196.104s122.551 81.229 196.104 81.229zM405.333 746.667c-106.667 0-192-85.333-192-192s85.333-192 192-192c106.667 0 192 85.333 192 192s-85.333 192-192 192z" />
<glyph unicode="&#xe90f;" glyph-name="menu-down" d="M298.667 533.333l213.333-213.333 213.333 213.333h-426.667z" />
<glyph unicode="&#xe910;" glyph-name="page-first" d="M785.493 252.16l-195.84 195.84 195.84 195.84-60.16 60.16-256-256 256-256 60.16 60.16zM256 704h85.333v-512h-85.333v512z" />
<glyph unicode="&#xe911;" glyph-name="page-last" d="M238.508 643.84l195.839-195.84-195.839-195.84 60.16-60.16 255.999 256-255.999 256-60.16-60.16zM682.667 704h85.333v-512h-85.333v512z" />
<glyph unicode="&#xe912;" glyph-name="play-circle" d="M426.667 256v384l256-192zM512 874.667c-56.030 0-111.513-11.036-163.278-32.478s-98.801-52.87-138.421-92.49c-80.015-80.016-124.968-188.54-124.968-301.699 0-113.161 44.952-221.683 124.968-301.7 39.62-39.62 86.655-71.044 138.421-92.489 51.765-21.44 107.248-32.478 163.278-32.478 113.161 0 221.683 44.954 301.7 124.966 80.013 80.017 124.966 188.54 124.966 301.7 0 56.030-11.038 111.513-32.478 163.278-21.444 51.766-52.868 98.801-92.489 138.421s-86.656 71.048-138.423 92.49c-51.763 21.442-107.247 32.478-163.277 32.478z" />
<glyph unicode="&#xe913;" glyph-name="play" d="M341.333 740.693v-597.333l469.333 298.667-469.333 298.666z" />
<glyph unicode="&#xe914;" glyph-name="upload-multiple" d="M384 362.667v256h-170.667l298.667 298.667 298.667-298.667h-170.667v-256h-256zM213.333 192v85.333h597.333v-85.333h-597.333zM810.667 106.667h-597.333v-85.333h597.333v85.333z" />
<glyph unicode="&#xe915;" glyph-name="video-plus" d="M725.333 512v149.333c0 11.316-4.497 22.168-12.497 30.17s-18.854 12.497-30.17 12.497h-512c-11.316 0-22.168-4.495-30.17-12.497s-12.497-18.854-12.497-30.17v-426.667c0-11.315 4.495-22.17 12.497-30.17s18.854-12.497 30.17-12.497h512c11.315 0 22.17 4.497 30.17 12.497s12.497 18.854 12.497 30.17v149.333l170.667-170.667v469.333l-170.667-170.667zM597.333 405.333h-128v-128h-85.333v128h-128v85.333h128v128h85.333v-128h128v-85.333z" />
<glyph unicode="&#xe916;" glyph-name="video" d="M725.333 512v149.333c0 11.316-4.497 22.168-12.497 30.17s-18.854 12.497-30.17 12.497h-512c-11.316 0-22.168-4.495-30.17-12.497s-12.497-18.854-12.497-30.17v-426.667c0-11.315 4.495-22.17 12.497-30.17s18.854-12.497 30.17-12.497h512c11.315 0 22.17 4.497 30.17 12.497s12.497 18.854 12.497 30.17v149.333l170.667-170.667v469.333l-170.667-170.667z" />
<glyph unicode="&#xe917;" glyph-name="window-close" d="M574.293 448l236.373-236.373v-62.293h-62.293l-236.373 236.373-236.373-236.373h-62.293v62.293l236.373 236.373-236.373 236.373v62.293h62.293l236.373-236.373 236.373 236.373h62.293v-62.293l-236.373-236.373z" />
</font>
</defs>
</svg>
